<svg width="210" height="49" viewBox="0 0 210 49" fill="none" xmlns="http://www.w3.org/2000/svg">
<path d="M40.8537 0H10.2134C4.5727 0 0 4.38761 0 9.8V39.2C0 44.6124 4.5727 49 10.2134 49H40.8537C46.4944 49 51.0671 44.6124 51.0671 39.2V9.8C51.0671 4.38761 46.4944 0 40.8537 0Z" fill="#2CB1BC"/>
<path d="M26.5589 9.37125H32.5433V28.665C32.5433 30.4387 32.131 32.0083 31.3065 33.3736C30.4953 34.7262 29.345 35.7725 27.8555 36.5126C26.366 37.2527 24.6838 37.6228 22.8086 37.6228C19.7366 37.6228 17.3429 36.8763 15.6273 35.3834C13.9118 33.8776 13.054 31.753 13.054 29.0096H19.0784C19.0784 30.3749 19.3776 31.3829 19.976 32.0338C20.5744 32.6846 21.5187 33.0099 22.8086 33.0099C23.9523 33.0099 24.8633 32.6335 25.5415 31.8806C26.2198 31.1277 26.5589 30.0559 26.5589 28.665V9.37125Z" fill="white"/>
<path d="M68.2986 18.7091H73.0883V36.0999C73.0883 37.3801 72.826 38.4158 72.3013 39.207C71.7766 39.9981 71.0233 40.5771 70.0413 40.9439C69.0669 41.3107 67.9013 41.4941 66.5446 41.4941C66.3797 41.4941 66.2223 41.4905 66.0724 41.4833C65.915 41.4833 65.7501 41.4797 65.5777 41.4725V37.88C65.7051 37.8872 65.8175 37.8908 65.915 37.8908C66.0049 37.898 66.1024 37.9016 66.2073 37.9016C66.9794 37.9016 67.5191 37.7433 67.8264 37.4269C68.1412 37.1176 68.2986 36.6501 68.2986 36.0244V18.7091ZM70.6822 16.573C69.9776 16.573 69.3705 16.3464 68.8608 15.8933C68.3511 15.433 68.0962 14.8828 68.0962 14.2427C68.0962 13.6098 68.3511 13.0668 68.8608 12.6137C69.3705 12.1534 69.9776 11.9232 70.6822 11.9232C71.4018 11.9232 72.0127 12.1534 72.5149 12.6137C73.0246 13.0668 73.2795 13.6098 73.2795 14.2427C73.2795 14.8828 73.0246 15.433 72.5149 15.8933C72.0127 16.3464 71.4018 16.573 70.6822 16.573Z" fill="#2CB1BC"/>
<path d="M84.7281 35.6037C82.9816 35.6037 81.4713 35.2476 80.197 34.5356C78.9302 33.8164 77.9521 32.8167 77.2625 31.5364C76.5729 30.249 76.2281 28.7566 76.2281 27.0593C76.2281 25.3475 76.5729 23.8515 77.2625 22.5713C77.9521 21.2839 78.9302 20.2842 80.197 19.5722C81.4713 18.8529 82.9816 18.4933 84.7281 18.4933C86.4746 18.4933 87.9812 18.8529 89.248 19.5722C90.5223 20.2842 91.5042 21.2839 92.1938 22.5713C92.8834 23.8515 93.2282 25.3475 93.2282 27.0593C93.2282 28.7566 92.8834 30.249 92.1938 31.5364C91.5042 32.8167 90.5223 33.8164 89.248 34.5356C87.9812 35.2476 86.4746 35.6037 84.7281 35.6037ZM84.7506 32.0435C85.5451 32.0435 86.2085 31.8277 86.7407 31.3962C87.2729 30.9575 87.6739 30.3605 87.9437 29.6053C88.2211 28.8501 88.3598 27.9907 88.3598 27.0269C88.3598 26.0632 88.2211 25.2037 87.9437 24.4485C87.6739 23.6933 87.2729 23.0964 86.7407 22.6576C86.2085 22.2189 85.5451 21.9995 84.7506 21.9995C83.9486 21.9995 83.274 22.2189 82.7268 22.6576C82.1871 23.0964 81.7786 23.6933 81.5012 24.4485C81.2314 25.2037 81.0965 26.0632 81.0965 27.0269C81.0965 27.9907 81.2314 28.8501 81.5012 29.6053C81.7786 30.3605 82.1871 30.9575 82.7268 31.3962C83.274 31.8277 83.9486 32.0435 84.7506 32.0435Z" fill="#2CB1BC"/>
<path d="M96.4326 35.28V13.1855H101.222V21.4925H101.368C101.578 21.0466 101.882 20.5935 102.279 20.1332C102.684 19.6657 103.209 19.2773 103.853 18.968C104.505 18.6516 105.315 18.4933 106.282 18.4933C107.541 18.4933 108.703 18.8098 109.767 19.4427C110.832 20.0684 111.682 21.0142 112.32 22.28C112.957 23.5387 113.275 25.1174 113.275 27.0161C113.275 28.8645 112.964 30.4252 112.342 31.6983C111.727 32.9641 110.888 33.9243 109.824 34.5788C108.767 35.2261 107.582 35.5497 106.271 35.5497C105.341 35.5497 104.55 35.4023 103.898 35.1074C103.254 34.8125 102.725 34.4421 102.313 33.9962C101.901 33.5431 101.586 33.0864 101.368 32.6261H101.155V35.28H96.4326ZM101.121 26.9945C101.121 27.9799 101.264 28.8394 101.548 29.573C101.833 30.3066 102.245 30.8784 102.785 31.2883C103.325 31.6911 103.981 31.8925 104.753 31.8925C105.532 31.8925 106.192 31.6875 106.732 31.2775C107.271 30.8604 107.68 30.285 107.957 29.5514C108.242 28.8106 108.384 27.9583 108.384 26.9945C108.384 26.038 108.246 25.1965 107.968 24.4701C107.691 23.7437 107.283 23.1755 106.743 22.7655C106.203 22.3556 105.54 22.1506 104.753 22.1506C103.973 22.1506 103.314 22.3484 102.774 22.7439C102.242 23.1395 101.833 23.7005 101.548 24.4269C101.264 25.1533 101.121 26.0092 101.121 26.9945Z" fill="#2CB1BC"/>
<path d="M129.053 19.5398C128.963 18.6695 128.577 17.9935 127.895 17.5116C127.212 17.0297 126.287 16.7888 125.117 16.7888C124.323 16.7888 123.652 16.8966 123.105 17.1124C122.558 17.321 122.138 17.6123 121.846 17.9863C121.561 18.3603 121.418 18.7846 121.418 19.2593C121.403 19.6549 121.49 20.0001 121.677 20.295C121.872 20.5899 122.138 20.8452 122.475 21.061C122.813 21.2695 123.202 21.4529 123.645 21.6112C124.087 21.7622 124.559 21.8917 125.061 21.9995L127.13 22.4742C128.134 22.69 129.056 22.9777 129.896 23.3373C130.735 23.6969 131.463 24.1392 132.077 24.6643C132.692 25.1893 133.168 25.8078 133.505 26.5199C133.85 27.2319 134.026 28.0482 134.034 28.9688C134.026 30.321 133.666 31.4933 132.954 32.4858C132.25 33.4712 131.23 34.2371 129.896 34.7837C128.569 35.3232 126.969 35.5929 125.095 35.5929C123.236 35.5929 121.617 35.3196 120.238 34.7729C118.866 34.2263 117.794 33.4172 117.022 32.3456C116.258 31.2667 115.857 29.9326 115.819 28.3431H120.53C120.583 29.0839 120.804 29.7024 121.193 30.1987C121.591 30.6878 122.119 31.0582 122.779 31.3099C123.446 31.5544 124.199 31.6767 125.039 31.6767C125.863 31.6767 126.579 31.5616 127.186 31.3315C127.801 31.1013 128.277 30.7813 128.614 30.3713C128.951 29.9613 129.12 29.4903 129.12 28.958C129.12 28.4618 128.966 28.0446 128.659 27.7066C128.359 27.3685 127.917 27.0809 127.332 26.8435C126.755 26.6062 126.047 26.3904 125.207 26.1962L122.7 25.5921C120.759 25.1389 119.226 24.4305 118.102 23.4668C116.977 22.503 116.419 21.2048 116.426 19.5722C116.419 18.2344 116.79 17.0657 117.539 16.0659C118.296 15.0662 119.335 14.2859 120.654 13.7249C121.973 13.1639 123.472 12.8834 125.151 12.8834C126.86 12.8834 128.352 13.1639 129.626 13.7249C130.908 14.2859 131.905 15.0662 132.617 16.0659C133.329 17.0657 133.696 18.2236 133.719 19.5398H129.053Z" fill="#2CB1BC"/>
<path d="M137.218 41.4941V18.7091H141.94V21.4925H142.154C142.364 21.0466 142.668 20.5935 143.065 20.1332C143.47 19.6657 143.994 19.2773 144.639 18.968C145.291 18.6516 146.101 18.4933 147.067 18.4933C148.327 18.4933 149.489 18.8098 150.553 19.4427C151.617 20.0684 152.468 21.0142 153.105 22.28C153.742 23.5387 154.061 25.1174 154.061 27.0161C154.061 28.8645 153.75 30.4252 153.128 31.6983C152.513 32.9641 151.674 33.9243 150.609 34.5788C149.552 35.2261 148.368 35.5497 147.056 35.5497C146.127 35.5497 145.336 35.4023 144.684 35.1074C144.039 34.8125 143.511 34.4421 143.099 33.9962C142.686 33.5431 142.371 33.0864 142.154 32.6261H142.008V41.4941H137.218ZM141.907 26.9945C141.907 27.9799 142.049 28.8394 142.334 29.573C142.619 30.3066 143.031 30.8784 143.571 31.2883C144.11 31.6911 144.766 31.8925 145.538 31.8925C146.318 31.8925 146.978 31.6875 147.517 31.2775C148.057 30.8604 148.465 30.285 148.743 29.5514C149.028 28.8106 149.17 27.9583 149.17 26.9945C149.17 26.038 149.031 25.1965 148.754 24.4701C148.477 23.7437 148.068 23.1755 147.528 22.7655C146.989 22.3556 146.325 22.1506 145.538 22.1506C144.759 22.1506 144.099 22.3484 143.56 22.7439C143.027 23.1395 142.619 23.7005 142.334 24.4269C142.049 25.1533 141.907 26.0092 141.907 26.9945Z" fill="#2CB1BC"/>
<path d="M162.179 35.5929C161.077 35.5929 160.095 35.4095 159.233 35.0427C158.371 34.6687 157.689 34.1185 157.187 33.392C156.692 32.6584 156.445 31.745 156.445 30.6518C156.445 29.7312 156.621 28.958 156.973 28.3323C157.325 27.7066 157.805 27.2031 158.412 26.8219C159.019 26.4407 159.709 26.1531 160.481 25.9589C161.261 25.7647 162.078 25.628 162.932 25.5489C163.936 25.4482 164.746 25.3547 165.361 25.2684C165.975 25.1749 166.421 25.0383 166.699 24.8585C166.976 24.6786 167.115 24.4125 167.115 24.0601V23.9954C167.115 23.3121 166.89 22.7835 166.44 22.4095C165.998 22.0355 165.368 21.8485 164.551 21.8485C163.689 21.8485 163.003 22.0319 162.494 22.3987C161.984 22.7583 161.647 23.2114 161.482 23.758L157.052 23.4128C157.277 22.4059 157.719 21.5356 158.378 20.802C159.038 20.0612 159.889 19.493 160.931 19.0975C161.98 18.6947 163.194 18.4933 164.574 18.4933C165.533 18.4933 166.451 18.6012 167.328 18.817C168.213 19.0327 168.996 19.3672 169.678 19.8203C170.368 20.2734 170.911 20.856 171.308 21.568C171.706 22.2728 171.904 23.1179 171.904 24.1033V35.28H167.362V32.9821H167.227C166.95 33.4999 166.579 33.9566 166.114 34.3522C165.649 34.7406 165.091 35.0463 164.439 35.2692C163.787 35.485 163.033 35.5929 162.179 35.5929ZM163.55 32.4211C164.255 32.4211 164.877 32.288 165.417 32.0219C165.957 31.7486 166.38 31.3818 166.687 30.9215C166.995 30.4612 167.148 29.9398 167.148 29.3572V27.5987C166.998 27.6922 166.792 27.7785 166.53 27.8576C166.275 27.9295 165.987 27.9979 165.664 28.0626C165.342 28.1201 165.02 28.1741 164.697 28.2244C164.375 28.2676 164.083 28.3071 163.82 28.3431C163.258 28.4222 162.767 28.5481 162.347 28.7207C161.928 28.8933 161.602 29.127 161.369 29.4219C161.137 29.7096 161.021 30.0692 161.021 30.5008C161.021 31.1265 161.257 31.6048 161.729 31.9356C162.209 32.2593 162.816 32.4211 163.55 32.4211Z" fill="#2CB1BC"/>
<path d="M183.423 35.6037C181.654 35.6037 180.133 35.244 178.858 34.5248C177.592 33.7984 176.617 32.7915 175.935 31.5041C175.26 30.2167 174.923 28.7351 174.923 27.0593C174.923 25.3619 175.264 23.8731 175.946 22.5929C176.636 21.3055 177.614 20.3022 178.881 19.5829C180.148 18.8565 181.654 18.4933 183.401 18.4933C184.907 18.4933 186.227 18.7558 187.358 19.2809C188.49 19.8059 189.386 20.5431 190.046 21.4925C190.705 22.4419 191.069 23.5567 191.136 24.8369H186.616C186.489 24.0098 186.152 23.3445 185.604 22.841C185.065 22.3304 184.356 22.0751 183.479 22.0751C182.737 22.0751 182.089 22.2692 181.534 22.6576C180.987 23.0388 180.56 23.5962 180.253 24.3298C179.945 25.0634 179.792 25.9517 179.792 26.9945C179.792 28.0518 179.942 28.9508 180.241 29.6916C180.549 30.4324 180.98 30.997 181.534 31.3854C182.089 31.7738 182.737 31.968 183.479 31.968C184.027 31.968 184.518 31.8601 184.952 31.6443C185.395 31.4286 185.758 31.1157 186.043 30.7057C186.335 30.2886 186.526 29.7887 186.616 29.2062H191.136C191.061 30.472 190.702 31.5868 190.057 32.5505C189.42 33.5071 188.539 34.2551 187.415 34.7945C186.29 35.3339 184.96 35.6037 183.423 35.6037Z" fill="#2CB1BC"/>
<path d="M202.073 35.6037C200.297 35.6037 198.768 35.2584 197.486 34.568C196.212 33.8703 195.23 32.885 194.54 31.612C193.851 30.3317 193.506 28.8178 193.506 27.0701C193.506 25.3655 193.851 23.8695 194.54 22.5821C195.23 21.2947 196.201 20.2914 197.452 19.5722C198.712 18.8529 200.188 18.4933 201.882 18.4933C203.022 18.4933 204.082 18.6695 205.064 19.022C206.054 19.3672 206.916 19.8886 207.65 20.5863C208.392 21.2839 208.969 22.1614 209.382 23.2186C209.794 24.2687 210 25.4986 210 26.9082V28.1705H195.417V25.3224H205.491C205.491 24.6607 205.341 24.0745 205.042 23.5639C204.742 23.0532 204.326 22.654 203.794 22.3663C203.269 22.0715 202.658 21.924 201.961 21.924C201.234 21.924 200.589 22.0858 200.027 22.4095C199.472 22.726 199.038 23.1539 198.723 23.6933C198.408 24.2255 198.247 24.8189 198.239 25.4734V28.1813C198.239 29.0012 198.397 29.7096 198.712 30.3066C199.034 30.9035 199.487 31.3638 200.072 31.6875C200.657 32.0111 201.35 32.173 202.152 32.173C202.684 32.173 203.171 32.101 203.614 31.9572C204.056 31.8133 204.434 31.5976 204.749 31.3099C205.064 31.0222 205.304 30.6698 205.469 30.2526L209.899 30.5331C209.674 31.5544 209.213 32.4463 208.516 33.2086C207.826 33.9638 206.934 34.5536 205.84 34.9779C204.753 35.3951 203.498 35.6037 202.073 35.6037Z" fill="#2CB1BC"/>
</svg>
